<svg id="Layer_1" data-name="Layer 1" xmlns="http://www.w3.org/2000/svg" viewBox="0 0 106.2 90.03"><defs><style>.cls-1,.cls-3,.cls-4{fill:none;stroke-linejoin:round;}.cls-1{stroke:#f26f6f;}.cls-1,.cls-4{stroke-width:2.89px;}.cls-2{fill:#e6e7e8;}.cls-3,.cls-4{stroke:#f16667;}.cls-3{stroke-width:2px;}</style></defs><title>ne-heart</title><line class="cls-1" x1="62.68" y1="62.74" x2="43.52" y2="62.74"/><line class="cls-1" x1="28.5" y1="21.03" x2="52.96" y2="16"/><polygon class="cls-1" points="28.5 21.03 2.88 19.93 13.78 4.86 28.5 21.03"/><polyline class="cls-1" points="35.8 2.88 28.5 21.03 53.1 38.6 52.96 16"/><path class="cls-1" d="M54.12,39.36" transform="translate(-1.02 -0.76)"/><line class="cls-1" x1="43.52" y1="62.74" x2="53.1" y2="87.15"/><polygon class="cls-1" points="53.1 38.6 30.04 46.77 19.92 62.74 43.52 63.62 53.1 38.6"/><polyline class="cls-1" points="53.5 87.15 53.1 87.15 19.92 62.74 5.39 45.37 2.88 19.93 13.78 4.86 35.8 2.88 54.11 16.66"/><path class="cls-1" d="M52.63,17.42" transform="translate(-1.02 -0.76)"/><polygon class="cls-1" points="28.5 21.03 30.04 46.77 5.39 45.37 28.5 21.03"/><line class="cls-1" x1="30.03" y1="46.77" x2="43.52" y2="63.62"/><path class="cls-1" d="M54.12,39.36" transform="translate(-1.02 -0.76)"/><path class="cls-1" d="M54,16.76" transform="translate(-1.02 -0.76)"/><circle class="cls-2" cx="35.8" cy="2.88" r="1.88"/><circle class="cls-3" cx="35.8" cy="2.88" r="1.88"/><circle class="cls-2" cx="13.78" cy="4.86" r="1.88"/><circle class="cls-3" cx="13.78" cy="4.86" r="1.88"/><circle class="cls-2" cx="2.88" cy="19.93" r="1.88"/><circle class="cls-3" cx="2.88" cy="19.93" r="1.88"/><circle class="cls-2" cx="5.39" cy="45.37" r="1.88"/><circle class="cls-3" cx="5.39" cy="45.37" r="1.88"/><circle class="cls-2" cx="19.92" cy="62.74" r="1.88"/><circle class="cls-3" cx="19.92" cy="62.74" r="1.88"/><circle class="cls-2" cx="30.03" cy="46.77" r="1.88"/><circle class="cls-3" cx="30.03" cy="46.77" r="1.88"/><circle class="cls-2" cx="28.5" cy="21.03" r="1.88"/><circle class="cls-3" cx="28.5" cy="21.03" r="1.88"/><line class="cls-1" x1="77.7" y1="21.03" x2="53.24" y2="16"/><polygon class="cls-4" points="77.7 21.03 103.31 19.93 92.41 4.86 77.7 21.03"/><polyline class="cls-1" points="70.39 2.88 77.7 21.03 53.09 38.6 53.24 16"/><path class="cls-1" d="M54.12,39.36" transform="translate(-1.02 -0.76)"/><line class="cls-1" x1="62.68" y1="62.74" x2="53.1" y2="87.15"/><polygon class="cls-1" points="53.09 38.6 76.16 46.77 86.27 62.74 62.68 63.62 53.09 38.6"/><polyline class="cls-1" points="52.7 87.15 53.09 87.15 86.27 62.74 100.81 45.37 103.31 19.93 92.41 4.86 70.39 2.88 52.08 16.66"/><path class="cls-1" d="M55.61,17.42" transform="translate(-1.02 -0.76)"/><polygon class="cls-1" points="77.7 21.03 76.16 46.77 100.81 45.37 77.7 21.03"/><line class="cls-1" x1="76.16" y1="46.77" x2="62.68" y2="63.62"/><path class="cls-1" d="M54.12,39.36" transform="translate(-1.02 -0.76)"/><path class="cls-1" d="M54.26,16.76" transform="translate(-1.02 -0.76)"/><circle class="cls-2" cx="70.4" cy="2.88" r="1.88"/><circle class="cls-3" cx="70.4" cy="2.88" r="1.88"/><circle class="cls-2" cx="92.41" cy="4.86" r="1.88"/><circle class="cls-3" cx="92.41" cy="4.86" r="1.88"/><circle class="cls-2" cx="103.31" cy="19.93" r="1.88"/><circle class="cls-3" cx="103.31" cy="19.93" r="1.88"/><circle class="cls-2" cx="100.81" cy="45.37" r="1.88"/><circle class="cls-3" cx="100.81" cy="45.37" r="1.88"/><circle class="cls-2" cx="86.27" cy="62.74" r="1.88"/><circle class="cls-3" cx="86.27" cy="62.74" r="1.88"/><circle class="cls-2" cx="53.1" cy="87.15" r="1.88"/><circle class="cls-3" cx="53.1" cy="87.15" r="1.88"/><circle class="cls-2" cx="53.24" cy="16" r="1.88"/><circle class="cls-3" cx="53.24" cy="16" r="1.88"/><circle class="cls-2" cx="53.1" cy="38.6" r="1.88"/><circle class="cls-3" cx="53.1" cy="38.6" r="1.88"/><circle class="cls-2" cx="62.68" cy="64.49" r="1.88"/><circle class="cls-3" cx="62.68" cy="64.49" r="1.88"/><circle class="cls-2" cx="43.52" cy="64.49" r="1.88"/><circle class="cls-3" cx="43.52" cy="64.49" r="1.88"/><circle class="cls-2" cx="76.16" cy="46.77" r="1.88"/><circle class="cls-3" cx="76.16" cy="46.77" r="1.88"/><circle class="cls-2" cx="77.7" cy="21.03" r="1.88"/><circle class="cls-3" cx="77.7" cy="21.03" r="1.88"/></svg>