<?xml version="1.0" encoding="utf-8"?>
<!-- Generator: Adobe Illustrator 19.2.1, SVG Export Plug-In . SVG Version: 6.00 Build 0)  -->
<svg version="1.1"
	 id="Layer_1" xmlns:cc="http://creativecommons.org/ns#" xmlns:dc="http://purl.org/dc/elements/1.1/" xmlns:inkscape="http://www.inkscape.org/namespaces/inkscape" xmlns:rdf="http://www.w3.org/1999/02/22-rdf-syntax-ns#" xmlns:sodipodi="http://sodipodi.sourceforge.net/DTD/sodipodi-0.dtd" xmlns:svg="http://www.w3.org/2000/svg"
	 xmlns="http://www.w3.org/2000/svg" xmlns:xlink="http://www.w3.org/1999/xlink" x="0px" y="0px" viewBox="0 0 100 100"
	 style="enable-background:new 0 0 100 100;" xml:space="preserve">
<g transform="translate(0,-952.36218)">
	<path d="M26,958c-5.9,0-11,5.1-11,11v68c0,5,4,9,9,9h59c1,0,2-1,2-2v-66c0-1.1-0.8-2-2-2c-3.5,0-7-3.5-7-7c0-3.5,3.5-7,7-7
		c1.1,0,2-0.9,2-2c0-1.1-0.9-2-2-2L26,958L26,958z M26,962h48.6c-1.6,1.9-2.6,4.4-2.6,7c0,2.6,1,5.1,2.6,7H26c-3.5,0-7-3.5-7-7
		C19,965.5,22.5,962,26,962z M19,977.4c1.9,1.6,4.4,2.6,7,2.6h55v62H24c-2.8,0-5-2.2-5-5L19,977.4L19,977.4z M31,993
		c-1.1,0-2,0.9-2,2s0.9,2,2,2h38c1.1,0,2-0.9,2-2s-0.9-2-2-2C69,993,31,993,31,993z M31,1009c-1.1,0-2,0.9-2,2s0.9,2,2,2h38
		c1.1,0,2-0.9,2-2s-0.9-2-2-2C69,1009,31,1009,31,1009z M31,1025c-1.1,0-2,0.9-2,2s0.9,2,2,2h38c1.1,0,2-0.9,2-2s-0.9-2-2-2
		C69,1025,31,1025,31,1025z"/>
</g>
</svg>
