<svg id="Layer_1" data-name="Layer 1" xmlns="http://www.w3.org/2000/svg" viewBox="0 0 176.67 23.77"><defs><style>.cls-1{fill:#61585a;}</style></defs><title>ne-wordmark</title><path class="cls-1" d="M11.25,24V13.89c0-2.31-1.21-3.1-3.07-3.1a4.75,4.75,0,0,0-3.79,2V24H0V7.3H4.38V9.48a7.63,7.63,0,0,1,5.83-2.59c3.66,0,5.42,2.07,5.42,5.31V24H11.25Z" transform="translate(0 -0.61)"/><path class="cls-1" d="M18.91,15.62a8.48,8.48,0,0,1,8.63-8.73c5,0,8.35,3.73,8.35,9.18v1H23.49a4.49,4.49,0,0,0,4.8,3.86,7.1,7.1,0,0,0,4.45-1.66l1.93,2.83a10.39,10.39,0,0,1-6.87,2.31C22.74,24.38,18.91,21,18.91,15.62Zm8.63-5.24a4,4,0,0,0-4.11,3.69h8.21A3.86,3.86,0,0,0,27.53,10.37Z" transform="translate(0 -0.61)"/><path class="cls-1" d="M39.92,19.83V11.13H37.16V7.3h2.76V2.75h4.42V7.3h3.38v3.83H44.33v7.52a1.6,1.6,0,0,0,1.52,1.83A2.39,2.39,0,0,0,47.37,20l0.93,3.31a5.41,5.41,0,0,1-3.66,1.07C41.57,24.38,39.92,22.79,39.92,19.83Z" transform="translate(0 -0.61)"/><path class="cls-1" d="M50.16,15.62c0-4.83,3.45-8.73,8.21-8.73,5,0,8,3.93,8,8.94v0.66H52.89a5.87,5.87,0,0,0,6,5.76A7.29,7.29,0,0,0,64,20.14l1.24,1.69a9.05,9.05,0,0,1-6.62,2.55C53.72,24.38,50.16,20.83,50.16,15.62ZM58.34,9c-3.55,0-5.31,3-5.45,5.55H63.82A5.4,5.4,0,0,0,58.34,9Z" transform="translate(0 -0.61)"/><path class="cls-1" d="M71.28,24V9.58H68.52V7.3h2.76V6c0-3.42,1.86-5.42,4.83-5.42a4.85,4.85,0,0,1,3.52,1.28L78.56,3.58a3,3,0,0,0-2.07-.83c-1.69,0-2.62,1.17-2.62,3.28V7.3h3.38V9.58H73.86V24H71.28ZM81,24V9.58H78.28V7.3H81V6C81,2.61,82.9.61,85.87,0.61a4.85,4.85,0,0,1,3.52,1.28L88.32,3.58a3,3,0,0,0-2.07-.83c-1.69,0-2.62,1.17-2.62,3.28V7.3H87V9.58H83.63V24H81Z" transform="translate(0 -0.61)"/><path class="cls-1" d="M89.15,15.62c0-4.83,3.45-8.73,8.21-8.73,5,0,8,3.93,8,8.94v0.66H91.87a5.87,5.87,0,0,0,6,5.76,7.29,7.29,0,0,0,5.14-2.1l1.24,1.69a9.05,9.05,0,0,1-6.62,2.55C92.7,24.38,89.15,20.83,89.15,15.62ZM97.32,9c-3.55,0-5.31,3-5.45,5.55h10.94A5.4,5.4,0,0,0,97.32,9Z" transform="translate(0 -0.61)"/><path class="cls-1" d="M108.57,15.62c0-4.93,3.35-8.73,8.31-8.73A7.13,7.13,0,0,1,123,9.79l-1.73,1.59A4.94,4.94,0,0,0,117,9.2c-3.55,0-5.76,2.72-5.76,6.42s2.21,6.45,5.76,6.45a5,5,0,0,0,4.24-2.17L123,21.48a7.13,7.13,0,0,1-6.11,2.9C111.92,24.38,108.57,20.58,108.57,15.62Z" transform="translate(0 -0.61)"/><path class="cls-1" d="M127.13,20.48V9.58h-2.76V7.3h2.76V2.75h2.59V7.3h3.38V9.58h-3.38V19.93c0,1.24.55,2.14,1.69,2.14a2.5,2.5,0,0,0,1.76-.69l0.76,1.93a4.23,4.23,0,0,1-3.11,1.07C128.37,24.38,127.13,23,127.13,20.48Z" transform="translate(0 -0.61)"/><path class="cls-1" d="M136.31,3.2a1.74,1.74,0,1,1,3.48,0A1.74,1.74,0,0,1,136.31,3.2ZM136.76,24V7.3h2.59V24h-2.59Z" transform="translate(0 -0.61)"/><path class="cls-1" d="M149,24L142,7.3h2.79L150.38,21,155.9,7.3h2.83L151.8,24H149Z" transform="translate(0 -0.61)"/><path class="cls-1" d="M160.46,15.62c0-4.83,3.45-8.73,8.21-8.73,5,0,8,3.93,8,8.94v0.66H163.18a5.87,5.87,0,0,0,6,5.76,7.29,7.29,0,0,0,5.14-2.1l1.24,1.69a9.06,9.06,0,0,1-6.62,2.55C164,24.38,160.46,20.83,160.46,15.62ZM168.63,9c-3.55,0-5.31,3-5.45,5.55h10.94A5.4,5.4,0,0,0,168.63,9Z" transform="translate(0 -0.61)"/></svg>